<?xml version="1.0" standalone="no"?>
<!DOCTYPE svg PUBLIC "-//W3C//DTD SVG 20010904//EN"
 "http://www.w3.org/TR/2001/REC-SVG-20010904/DTD/svg10.dtd">
<svg version="1.0" xmlns="http://www.w3.org/2000/svg"
 width="1280.000000pt" height="536.000000pt" viewBox="0 0 1280.000000 536.000000"
 preserveAspectRatio="xMidYMid meet">

<g transform="translate(0.000000,536.000000) scale(0.100000,-0.100000)"
fill="#000000" stroke="none">
<path d="M0 2680 l0 -2680 6400 0 6400 0 0 2680 0 2680 -6400 0 -6400 0 0
-2680z m6738 654 l22 -15 0 -479 0 -478 47 -59 c26 -32 71 -86 100 -121 53
-62 61 -84 43 -112 -8 -13 -120 -15 -894 -18 -566 -1 -893 1 -910 8 -48 18
-35 51 74 183 l100 122 0 477 0 477 22 15 c20 14 103 16 698 16 595 0 678 -2
698 -16z m-4145 -306 c37 -18 97 -89 97 -114 0 -7 -15 -23 -32 -35 -18 -13
-39 -29 -46 -36 -19 -18 -21 -17 -56 23 -40 46 -102 58 -135 25 -33 -33 -13
-55 97 -109 157 -77 212 -148 196 -254 -19 -123 -96 -188 -223 -188 -81 0
-140 22 -188 70 -48 47 -50 66 -13 105 17 18 42 38 56 45 23 13 26 11 60 -28
31 -37 41 -42 78 -42 50 0 66 13 66 55 0 40 -17 55 -113 99 -90 41 -133 73
-164 125 -27 42 -30 114 -9 164 43 105 212 154 329 95z m5214 0 c22 -11 49
-28 58 -38 25 -28 44 -89 45 -143 l0 -48 -72 3 c-73 3 -73 3 -76 33 -7 56 -56
84 -128 71 -55 -11 -64 -41 -64 -206 0 -188 11 -210 104 -210 56 0 79 25 86
93 l5 52 73 3 72 3 0 -76 c0 -160 -69 -225 -239 -225 -101 0 -148 15 -192 59
-54 54 -61 92 -57 320 3 188 4 198 28 240 41 73 127 104 255 93 33 -2 79 -13
102 -24z m3569 -4 c39 -22 94 -87 94 -112 0 -6 -24 -27 -52 -47 l-53 -36 -31
36 c-39 47 -96 58 -134 27 -37 -30 -20 -49 94 -106 167 -83 221 -156 197 -267
-27 -124 -94 -179 -220 -179 -92 0 -168 32 -205 86 -14 21 -26 44 -26 51 0 14
90 93 107 93 6 0 20 -13 29 -29 22 -37 56 -56 96 -53 37 3 58 23 58 54 0 39
-19 55 -130 110 -91 46 -109 60 -137 102 -54 80 -42 181 28 240 79 66 199 79
285 30z m-10079 14 c5 -7 36 -103 68 -212 l59 -199 70 209 71 209 80 0 80 0 3
-347 2 -348 -70 0 -70 0 0 178 c0 99 -4 170 -9 162 -4 -8 -30 -88 -56 -177
l-48 -163 -52 0 -52 0 -42 153 c-23 83 -46 163 -51 177 -5 16 -9 -39 -9 -152
l-1 -178 -70 0 -70 0 0 343 c0 189 3 347 7 350 12 13 150 8 160 -5z m783 -338
l0 -351 -72 3 c-40 2 -72 6 -70 11 1 4 2 160 2 347 l0 340 70 0 70 0 0 -350z
m948 208 l3 -138 79 0 79 0 3 138 3 137 70 0 70 0 3 -348 2 -348 -72 3 -73 3
-3 143 -3 142 -79 0 -80 0 0 -145 0 -145 -70 0 -70 0 0 350 0 351 68 -3 67 -3
3 -137z m818 127 c56 -16 96 -53 113 -104 6 -19 11 -85 11 -148 0 -125 -13
-174 -56 -208 l-25 -20 40 -89 c23 -48 41 -94 41 -102 0 -11 -17 -14 -72 -14
l-73 0 -40 90 c-33 74 -44 90 -62 90 -21 0 -22 -5 -25 -87 l-3 -88 -72 -3 -73
-3 0 344 c0 189 3 347 7 350 13 14 238 7 289 -8z m630 -75 c12 -47 51 -193 87
-325 35 -132 67 -250 70 -262 5 -22 3 -23 -67 -23 l-72 0 -22 75 -22 75 -73 0
-72 0 -17 -60 c-10 -32 -18 -66 -18 -75 0 -12 -14 -15 -75 -15 -46 0 -75 4
-75 11 0 15 169 640 180 667 9 21 15 23 82 20 l72 -3 22 -85z m3914 79 c55
-12 106 -59 120 -109 11 -39 13 -230 4 -280 -4 -18 -22 -47 -39 -65 l-33 -32
44 -97 c24 -54 44 -99 44 -102 0 -2 -35 -4 -78 -4 l-77 0 -38 81 c-20 45 -37
86 -37 90 0 5 -11 9 -25 9 -24 0 -24 -2 -27 -87 l-3 -88 -72 -3 -73 -3 0 344
c0 189 3 347 7 350 10 11 233 8 283 -4z m704 3 c2 -4 6 -34 7 -67 l3 -60 -117
-3 -117 -3 0 -69 0 -70 90 0 91 0 -3 -67 -3 -68 -87 -3 -88 -3 0 -69 0 -69
113 -3 112 -3 5 -50 c9 -91 23 -85 -191 -85 l-189 0 0 343 c0 189 3 347 7 350
9 10 361 9 367 -1z m486 -14 c8 -19 152 -552 176 -651 l6 -28 -73 3 -74 3 -20
73 -20 73 -74 -3 -75 -3 -9 -35 c-4 -19 -13 -52 -18 -72 l-10 -38 -75 0 c-68
0 -75 2 -70 18 3 10 13 44 21 77 27 101 156 579 160 593 3 8 27 12 75 12 64 0
71 -2 80 -22z m748 13 c9 -5 12 -26 10 -67 l-3 -59 -77 -3 -78 -3 0 -279 0
-280 -75 0 -75 0 0 280 0 280 -80 0 -80 0 0 63 c0 35 3 67 7 70 9 10 436 8
451 -2z m550 -63 l3 -68 -121 0 -120 0 0 -70 0 -70 95 0 95 0 0 -64 c0 -76 0
-76 -111 -76 l-79 0 0 -70 0 -70 104 0 c57 0 111 -3 120 -6 12 -5 16 -21 16
-70 l0 -64 -195 0 -195 0 0 343 c0 189 3 347 7 351 4 3 90 5 192 4 l186 -3 3
-67z"/>
<path d="M5410 2825 l0 -435 630 0 630 0 -2 433 -3 432 -627 3 -628 2 0 -435z"/>
<path d="M5341 2243 l-50 -58 324 -3 c205 -1 325 -6 325 -12 0 -6 9 -19 20
-30 28 -28 129 -29 153 -2 10 10 17 24 17 30 0 9 87 12 325 14 l325 3 -46 58
-46 57 -648 0 -648 0 -51 -57z"/>
<path d="M2458 2983 c7 -3 16 -2 19 1 4 3 -2 6 -13 5 -11 0 -14 -3 -6 -6z"/>
<path d="M2396 2971 c-4 -5 3 -7 14 -4 23 6 26 13 6 13 -8 0 -17 -4 -20 -9z"/>
<path d="M2511 2695 c25 -13 60 -37 77 -53 18 -17 32 -26 32 -22 0 19 -121
101 -147 100 -4 -1 13 -12 38 -25z"/>
<path d="M2631 2554 c0 -11 3 -14 6 -6 3 7 2 16 -1 19 -3 4 -6 -2 -5 -13z"/>
<path d="M2448 2413 c7 -3 16 -2 19 1 4 3 -2 6 -13 5 -11 0 -14 -3 -6 -6z"/>
<path d="M2518 2413 c7 -3 16 -2 19 1 4 3 -2 6 -13 5 -11 0 -14 -3 -6 -6z"/>
<path d="M7588 2973 c6 -2 18 -2 25 0 6 3 1 5 -13 5 -14 0 -19 -2 -12 -5z"/>
<path d="M7718 2973 c7 -3 16 -2 19 1 4 3 -2 6 -13 5 -11 0 -14 -3 -6 -6z"/>
<path d="M7550 2960 c-9 -6 -10 -10 -3 -10 6 0 15 5 18 10 8 12 4 12 -15 0z"/>
<path d="M7765 2958 c11 -6 28 -20 38 -32 l18 -21 -11 22 c-10 22 -39 43 -57
43 -4 0 1 -6 12 -12z"/>
<path d="M7799 2463 c-13 -16 -12 -17 4 -4 16 13 21 21 13 21 -2 0 -10 -8 -17
-17z"/>
<path d="M7750 2430 c-8 -5 -10 -10 -5 -10 6 0 17 5 25 10 8 5 11 10 5 10 -5
0 -17 -5 -25 -10z"/>
<path d="M7627 2413 c18 -2 50 -2 70 0 21 2 7 4 -32 4 -38 0 -55 -2 -38 -4z"/>
<path d="M11248 2983 c7 -3 16 -2 19 1 4 3 -2 6 -13 5 -11 0 -14 -3 -6 -6z"/>
<path d="M11176 2971 c-4 -5 3 -7 14 -4 23 6 26 13 6 13 -8 0 -17 -4 -20 -9z"/>
<path d="M11300 2689 c30 -17 64 -39 75 -48 18 -15 19 -15 6 1 -14 19 -112 78
-127 78 -5 0 16 -14 46 -31z"/>
<path d="M11396 2607 c3 -10 9 -15 12 -12 3 3 0 11 -7 18 -10 9 -11 8 -5 -6z"/>
<path d="M11160 2446 c0 -3 9 -10 20 -16 11 -6 20 -8 20 -6 0 3 -9 10 -20 16
-11 6 -20 8 -20 6z"/>
<path d="M11228 2413 c7 -3 16 -2 19 1 4 3 -2 6 -13 5 -11 0 -14 -3 -6 -6z"/>
<path d="M11298 2413 c6 -2 18 -2 25 0 6 3 1 5 -13 5 -14 0 -19 -2 -12 -5z"/>
<path d="M1203 2973 c9 -2 25 -2 35 0 9 3 1 5 -18 5 -19 0 -27 -2 -17 -5z"/>
<path d="M1600 2976 c0 -2 14 -6 30 -8 17 -3 30 -1 30 4 0 4 -13 8 -30 8 -16
0 -30 -2 -30 -4z"/>
<path d="M1652 2920 c0 -14 2 -19 5 -12 2 6 2 18 0 25 -3 6 -5 1 -5 -13z"/>
<path d="M1654 2650 c0 -118 2 -167 3 -107 2 59 2 155 0 215 -1 59 -3 10 -3
-108z"/>
<path d="M3038 2703 c46 -2 118 -2 160 0 42 1 5 3 -83 3 -88 0 -123 -2 -77 -3z"/>
<path d="M3668 2973 c28 -2 76 -2 105 0 28 2 5 3 -53 3 -58 0 -81 -1 -52 -3z"/>
<path d="M3700 2785 c0 -128 -2 -125 72 -104 44 12 53 33 53 121 -1 74 -21 98
-82 98 l-43 0 0 -115z"/>
<path d="M3780 2601 c0 -5 9 -7 20 -4 11 3 20 7 20 9 0 2 -9 4 -20 4 -11 0
-20 -4 -20 -9z"/>
<path d="M4360 2718 c-7 -29 -15 -59 -17 -65 -4 -9 6 -13 31 -13 20 0 36 5 36
11 0 13 -30 119 -34 119 -1 0 -8 -24 -16 -52z"/>
<path d="M4250 2578 c0 -5 56 -8 125 -8 69 0 125 3 125 8 0 4 -56 7 -125 7
-69 0 -125 -3 -125 -7z"/>
<path d="M8200 2974 c83 -8 188 -8 183 -1 -2 4 -52 6 -111 5 -59 -1 -91 -3
-72 -4z"/>
<path d="M8250 2784 l0 -117 41 7 c23 4 50 11 60 16 36 20 38 171 3 197 -10 7
-37 13 -61 13 l-43 0 0 -116z"/>
<path d="M8378 2613 c7 -3 16 -2 19 1 4 3 -2 6 -13 5 -11 0 -14 -3 -6 -6z"/>
<path d="M8170 2599 c0 -5 5 -7 10 -4 6 3 10 8 10 11 0 2 -4 4 -10 4 -5 0 -10
-5 -10 -11z"/>
<path d="M8330 2600 c0 -5 7 -7 15 -4 8 4 15 8 15 10 0 2 -7 4 -15 4 -8 0 -15
-4 -15 -10z"/>
<path d="M8791 2953 c2 -24 2 -24 6 -6 4 21 9 23 126 26 l122 3 -127 2 -128 2
1 -27z"/>
<path d="M8791 2884 c0 -11 3 -14 6 -6 3 7 2 16 -1 19 -3 4 -6 -2 -5 -13z"/>
<path d="M8793 2700 c0 -25 2 -35 4 -23 4 21 10 22 101 26 l97 3 -97 2 c-82 2
-97 5 -101 20 -3 9 -5 -3 -4 -28z"/>
<path d="M8790 2418 c0 -5 57 -7 128 -6 130 2 115 6 -41 10 -48 2 -87 0 -87
-4z"/>
<path d="M9490 2970 c0 -5 5 -10 10 -10 6 0 10 5 10 10 0 6 -4 10 -10 10 -5 0
-10 -4 -10 -10z"/>
<path d="M9492 2739 c-6 -15 -14 -43 -17 -63 l-7 -36 37 0 c31 0 35 3 30 19
-3 10 -11 38 -19 62 -13 44 -13 44 -24 18z"/>
<path d="M9373 2578 c-2 -5 55 -8 126 -8 72 0 131 3 131 8 0 4 -57 7 -126 7
-69 0 -128 -3 -131 -7z"/>
<path d="M10018 2973 c45 -2 119 -2 165 0 45 1 8 3 -83 3 -91 0 -128 -2 -82
-3z"/>
<path d="M10623 2973 c37 -2 96 -2 130 0 34 2 4 3 -68 3 -71 0 -99 -1 -62 -3z"/>
<path d="M10563 2805 c0 -22 2 -30 4 -17 2 12 2 30 0 40 -3 9 -5 -1 -4 -23z"/>
<path d="M10561 2734 c0 -11 3 -14 6 -6 3 7 2 16 -1 19 -3 4 -6 -2 -5 -13z"/>
<path d="M10608 2703 c28 -2 76 -2 105 0 28 2 5 3 -53 3 -58 0 -81 -1 -52 -3z"/>
<path d="M10562 2650 c0 -14 2 -19 5 -12 2 6 2 18 0 25 -3 6 -5 1 -5 -13z"/>
<path d="M10562 2590 c0 -14 2 -19 5 -12 2 6 2 18 0 25 -3 6 -5 1 -5 -13z"/>
<path d="M10562 2525 c0 -16 2 -22 5 -12 2 9 2 23 0 30 -3 6 -5 -1 -5 -18z"/>
<path d="M10623 2413 c37 -2 96 -2 130 0 34 2 4 3 -68 3 -71 0 -99 -1 -62 -3z"/>
</g>
</svg>
